<svg width="14" height="18" viewBox="0 0 14 18" fill="none" xmlns="http://www.w3.org/2000/svg">
<path fill-rule="evenodd" clip-rule="evenodd" d="M7.00065 0.728516C4.92958 0.728516 3.25065 2.40745 3.25065 4.47852C3.25065 6.54958 4.92958 8.22852 7.00065 8.22852C9.07172 8.22852 10.7507 6.54958 10.7507 4.47852C10.7507 2.40745 9.07172 0.728516 7.00065 0.728516ZM4.91732 4.47852C4.91732 3.32792 5.85006 2.39518 7.00065 2.39518C8.15124 2.39518 9.08398 3.32792 9.08398 4.47852C9.08398 5.62911 8.15124 6.56185 7.00065 6.56185C5.85006 6.56185 4.91732 5.62911 4.91732 4.47852Z" fill="#1D1D1B"/>
<path fill-rule="evenodd" clip-rule="evenodd" d="M7.00065 9.47852C3.31875 9.47852 0.333984 12.4633 0.333984 16.1452V17.3952H13.6673V16.1452C13.6673 12.4633 10.6825 9.47852 7.00065 9.47852ZM7.00065 11.1452C9.62176 11.1452 11.7718 13.162 11.9835 15.7285H2.01776C2.22949 13.162 4.37954 11.1452 7.00065 11.1452Z" fill="#1D1D1B"/>
</svg>
