<svg width="16" height="13" viewBox="0 0 16 13" fill="none" xmlns="http://www.w3.org/2000/svg">
<path fill-rule="evenodd" clip-rule="evenodd" d="M8.00027 4.04968C6.61956 4.04963 5.50023 5.16887 5.50017 6.54958C5.50012 7.9303 6.61936 9.04963 8.00007 9.04968C9.38079 9.04974 10.5001 7.9305 10.5002 6.54978C10.5002 5.16907 9.38098 4.04974 8.00027 4.04968ZM6.50017 6.54962C6.50021 5.7212 7.17181 5.04965 8.00023 5.04968C8.82866 5.04972 9.50021 5.72132 9.50017 6.54974C9.50014 7.37817 8.82854 8.04972 8.00011 8.04968C7.17169 8.04965 6.50014 7.37805 6.50017 6.54962Z" fill="#1D1D1B"/>
<path fill-rule="evenodd" clip-rule="evenodd" d="M8.00041 0.716351C4.99099 0.71623 2.96386 2.51895 1.78732 4.04734L1.7661 4.0749C1.50002 4.42045 1.25495 4.7387 1.08869 5.11501C0.910645 5.51798 0.833531 5.95719 0.833507 6.5494C0.833484 7.14161 0.910563 7.58082 1.08857 7.98381C1.25481 8.36014 1.49985 8.67841 1.76591 9.02397L1.78712 9.05153C2.96354 10.58 4.99052 12.3829 7.99994 12.383C11.0094 12.3831 13.0365 10.5804 14.213 9.05202L14.2342 9.02449C14.5003 8.67893 14.7454 8.36068 14.9117 7.98436C15.0897 7.58139 15.1668 7.14218 15.1668 6.54997C15.1669 5.95776 15.0898 5.51855 14.9118 5.11556C14.7455 4.73923 14.5005 4.42096 14.2344 4.07538L14.2132 4.04784C13.0368 2.51935 11.0098 0.716471 8.00041 0.716351ZM2.57973 4.65733C3.66606 3.24612 5.43394 1.71625 8.00037 1.71635C10.5668 1.71645 12.3345 3.24647 13.4208 4.65777C13.7131 5.03764 13.8844 5.26462 13.997 5.51962C14.1023 5.75794 14.1669 6.04922 14.1668 6.54993C14.1668 7.05064 14.1022 7.34192 13.997 7.58023C13.8843 7.83521 13.713 8.06219 13.4206 8.44203C12.3343 9.85325 10.5664 11.3831 7.99998 11.383C5.43355 11.3829 3.6658 9.8529 2.57958 8.4416C2.2872 8.06173 2.11595 7.83474 2.00331 7.57975C1.89803 7.34143 1.83349 7.05015 1.83351 6.54944C1.83353 6.04873 1.8981 5.75745 2.00339 5.51914C2.11605 5.26415 2.28732 5.03718 2.57973 4.65733Z" fill="#1D1D1B"/>
</svg>
