<svg width="20" height="21" viewBox="0 0 20 21" fill="none" xmlns="http://www.w3.org/2000/svg">
<path d="M19.8055 8.11377H19V8.07227H10V12.0723H15.6515C14.827 14.4008 12.6115 16.0723 10 16.0723C6.6865 16.0723 4 13.3858 4 10.0723C4 6.75877 6.6865 4.07227 10 4.07227C11.5295 4.07227 12.921 4.64927 13.9805 5.59177L16.809 2.76327C15.023 1.09877 12.634 0.0722656 10 0.0722656C4.4775 0.0722656 0 4.54977 0 10.0723C0 15.5948 4.4775 20.0723 10 20.0723C15.5225 20.0723 20 15.5948 20 10.0723C20 9.40177 19.931 8.74727 19.8055 8.11377Z" fill="white"/>
<path d="M1.153 5.41777L4.4385 7.82727C5.3275 5.62627 7.4805 4.07227 10 4.07227C11.5295 4.07227 12.921 4.64927 13.9805 5.59177L16.809 2.76327C15.023 1.09877 12.634 0.0722656 10 0.0722656C6.159 0.0722656 2.828 2.24077 1.153 5.41777Z" fill="white"/>
<path d="M10 20.0723C12.583 20.0723 14.93 19.0838 16.7045 17.4763L13.6095 14.8573C12.5719 15.6468 11.3038 16.0737 10 16.0723C7.399 16.0723 5.1905 14.4138 4.3585 12.0993L1.0975 14.6118C2.7525 17.8503 6.1135 20.0723 10 20.0723Z" fill="white"/>
<path d="M19.8055 8.11377H19V8.07227H10V12.0723H15.6515C15.2571 13.1805 14.5467 14.1489 13.608 14.8578L13.6095 14.8573L16.7045 17.4763C16.4855 17.6753 20 15.0723 20 10.0723C20 9.40177 19.931 8.74727 19.8055 8.11377Z" fill="white"/>
</svg>
