<svg width="24" height="25" viewBox="0 0 24 25" fill="none" xmlns="http://www.w3.org/2000/svg">
<g clip-path="url(#clip0_2048_809)">
<path d="M24 12.0723C24 5.44484 18.6274 0.0722656 12 0.0722656C5.37258 0.0722656 0 5.44484 0 12.0723C0 18.0617 4.3882 23.0263 10.125 23.9265V15.541H7.07812V12.0723H10.125V9.42852C10.125 6.42102 11.9166 4.75977 14.6576 4.75977C15.9701 4.75977 17.3438 4.99414 17.3438 4.99414V7.94727H15.8306C14.34 7.94727 13.875 8.87234 13.875 9.82227V12.0723H17.2031L16.6711 15.541H13.875V23.9265C19.6118 23.0263 24 18.0617 24 12.0723Z" fill="#1877F2"/>
<path d="M16.6711 15.541L17.2031 12.0723H13.875V9.82227C13.875 8.87328 14.34 7.94727 15.8306 7.94727H17.3438V4.99414C17.3438 4.99414 15.9705 4.75977 14.6576 4.75977C11.9166 4.75977 10.125 6.42102 10.125 9.42852V12.0723H7.07812V15.541H10.125V23.9265C11.3674 24.1209 12.6326 24.1209 13.875 23.9265V15.541H16.6711Z" fill="white"/>
</g>
<defs>
<clipPath id="clip0_2048_809">
<rect width="24" height="24" fill="white" transform="translate(0 0.0722656)"/>
</clipPath>
</defs>
</svg>
