<svg width="24" height="25" viewBox="0 0 24 25" fill="none" xmlns="http://www.w3.org/2000/svg">
<rect y="0.0722656" width="24" height="24" rx="12" fill="#262626"/>
<path d="M9.50064 12.0723C9.50064 10.6916 10.6196 9.57207 12.0002 9.57207C13.3809 9.57207 14.5004 10.6916 14.5004 12.0723C14.5004 13.4529 13.3809 14.5725 12.0002 14.5725C10.6196 14.5725 9.50064 13.4529 9.50064 12.0723ZM8.14908 12.0723C8.14908 14.1993 9.87324 15.9234 12.0002 15.9234C14.1272 15.9234 15.8514 14.1993 15.8514 12.0723C15.8514 9.94527 14.1272 8.22111 12.0002 8.22111C9.87324 8.22111 8.14908 9.94527 8.14908 12.0723ZM15.1039 8.06841C15.1038 8.24641 15.1565 8.42044 15.2553 8.56848C15.3542 8.71652 15.4947 8.83193 15.6591 8.90012C15.8235 8.9683 16.0045 8.9862 16.1791 8.95154C16.3537 8.91689 16.5141 8.83123 16.64 8.70542C16.7659 8.5796 16.8517 8.41927 16.8865 8.2447C16.9213 8.07013 16.9035 7.88916 16.8355 7.72468C16.7674 7.5602 16.6521 7.4196 16.5042 7.32064C16.3562 7.22169 16.1822 7.16884 16.0042 7.16877H16.0039C15.7653 7.16888 15.5365 7.26368 15.3677 7.43237C15.199 7.60105 15.1041 7.82981 15.1039 8.06841ZM8.97024 18.1771C8.23902 18.1438 7.84158 18.022 7.57746 17.9191C7.2273 17.7828 6.97746 17.6204 6.71478 17.3581C6.4521 17.0958 6.2895 16.8462 6.15378 16.496C6.05082 16.232 5.92902 15.8344 5.89578 15.1032C5.85942 14.3127 5.85216 14.0752 5.85216 12.0723C5.85216 10.0695 5.86002 9.83265 5.89578 9.04143C5.92908 8.31021 6.05178 7.91343 6.15378 7.64865C6.2901 7.29849 6.45246 7.04865 6.71478 6.78597C6.9771 6.52329 7.2267 6.36069 7.57746 6.22497C7.84146 6.12201 8.23902 6.00021 8.97024 5.96697C9.7608 5.93061 9.99828 5.92335 12.0002 5.92335C14.0022 5.92335 14.2399 5.93121 15.0311 5.96697C15.7624 6.00027 16.1591 6.12297 16.4239 6.22497C16.7741 6.36069 17.0239 6.52365 17.2866 6.78597C17.5493 7.04829 17.7113 7.29849 17.8476 7.64865C17.9506 7.91265 18.0724 8.31021 18.1056 9.04143C18.142 9.83265 18.1492 10.0695 18.1492 12.0723C18.1492 14.0752 18.142 14.312 18.1056 15.1032C18.0723 15.8344 17.9499 16.2319 17.8476 16.496C17.7113 16.8462 17.5489 17.096 17.2866 17.3581C17.0243 17.6202 16.7741 17.7828 16.4239 17.9191C16.1599 18.022 15.7624 18.1438 15.0311 18.1771C14.2406 18.2134 14.0031 18.2207 12.0002 18.2207C9.99738 18.2207 9.76056 18.2134 8.97024 18.1771ZM8.90814 4.61769C8.10972 4.65405 7.56414 4.78065 7.08768 4.96605C6.59424 5.15751 6.17652 5.41437 5.7591 5.83113C5.34168 6.24789 5.08548 6.66627 4.89402 7.15971C4.70862 7.63647 4.58202 8.18175 4.54566 8.98017C4.5087 9.77985 4.50024 10.0355 4.50024 12.0723C4.50024 14.109 4.5087 14.3647 4.54566 15.1644C4.58202 15.9628 4.70862 16.5081 4.89402 16.9848C5.08548 17.478 5.34174 17.8968 5.7591 18.3134C6.17646 18.73 6.59424 18.9865 7.08768 19.1785C7.56504 19.3639 8.10972 19.4905 8.90814 19.5268C9.70824 19.5632 9.96348 19.5723 12.0002 19.5723C14.037 19.5723 14.2927 19.5638 15.0923 19.5268C15.8908 19.4905 16.436 19.3639 16.9128 19.1785C17.4059 18.9865 17.824 18.7302 18.2414 18.3134C18.6588 17.8966 18.9145 17.478 19.1065 16.9848C19.2919 16.5081 19.4191 15.9628 19.4548 15.1644C19.4912 14.3641 19.4996 14.109 19.4996 12.0723C19.4996 10.0355 19.4912 9.77985 19.4548 8.98017C19.4185 8.18169 19.2919 7.63617 19.1065 7.15971C18.9145 6.66657 18.6581 6.24855 18.2414 5.83113C17.8246 5.41371 17.4059 5.15751 16.9134 4.96605C16.436 4.78065 15.8908 4.65345 15.0929 4.61769C14.2933 4.58133 14.0376 4.57227 12.0008 4.57227C9.96408 4.57227 9.70824 4.58073 8.90814 4.61769Z" fill="white"/>
</svg>
