<svg width="14" height="15" viewBox="0 0 14 15" fill="none" xmlns="http://www.w3.org/2000/svg">
<path d="M4.33292 6.18384C4.33298 4.71108 5.52693 3.51722 6.99969 3.51727C8.47245 3.51733 9.66631 4.71129 9.66625 6.18405C9.6662 7.42661 8.81631 8.47064 7.66615 8.76662L7.66613 9.1923L6.3328 9.19225L6.33286 7.51725L6.99953 7.51727C7.73591 7.5173 8.33289 6.92037 8.33292 6.18399C8.33295 5.44762 7.73602 4.85064 6.99964 4.85061C6.26326 4.85058 5.66628 5.44751 5.66625 6.18389L4.33292 6.18384Z" fill="#1C64F2"/>
<path d="M7.66604 11.5173L7.66609 10.184L6.33276 10.1839L6.3327 11.5172L7.66604 11.5173Z" fill="#1C64F2"/>
<path fill-rule="evenodd" clip-rule="evenodd" d="M0.332864 7.51701C0.333011 3.83511 3.3179 0.850461 6.9998 0.850608C10.6817 0.850755 13.6663 3.83564 13.6662 7.51754C13.6661 11.1994 10.6812 14.1841 6.99926 14.1839C3.31737 14.1838 0.332717 11.1989 0.332864 7.51701ZM6.99974 2.18394C4.05423 2.18382 1.66631 4.57154 1.6662 7.51706C1.66608 10.4626 4.0538 12.8505 6.99932 12.8506C9.94484 12.8507 12.3327 10.463 12.3329 7.51749C12.333 4.57197 9.94526 2.18406 6.99974 2.18394Z" fill="#1C64F2"/>
</svg>
