<svg width="141" height="25" viewBox="0 0 141 25" fill="none" xmlns="http://www.w3.org/2000/svg">
<path d="M98.7349 21.8008C98.7349 21.7257 98.819 21.6803 98.8833 21.719C99.5648 22.1295 100.437 22.3801 101.281 22.3801C102.762 22.3801 103.621 21.5448 103.621 20.1794V19.6994C103.621 19.6884 103.615 19.6784 103.605 19.6734C103.595 19.6685 103.584 19.6694 103.575 19.6757C103.02 20.0708 102.309 20.2919 101.536 20.2919C99.4989 20.2919 97.8437 18.7498 97.8437 16.3885C97.8437 14.0433 99.5148 12.2442 101.966 12.2442C102.825 12.2442 103.496 12.2442 104.162 12.2442H105.453C105.505 12.2442 105.547 12.2863 105.547 12.3383V20.2276C105.547 22.6532 103.924 24.0507 101.425 24.0507C100.415 24.0507 99.4657 23.8058 98.7845 23.4505C98.7538 23.4345 98.7349 23.4027 98.7349 23.3681V21.8008ZM99.7854 16.3243C99.7854 17.6736 100.629 18.6695 101.998 18.6695C102.6 18.6695 103.173 18.4575 103.584 18.1512C103.608 18.1339 103.621 18.1063 103.621 18.0773V14.0089C103.621 13.9569 103.579 13.9148 103.527 13.9148C103.131 13.9148 102.608 13.9148 102.093 13.9148C100.613 13.9148 99.7854 14.991 99.7854 16.3243Z" fill="#101010"/>
<path d="M114.2 19.7573C114.2 19.7901 114.183 19.8204 114.155 19.8371C113.422 20.2707 112.317 20.5328 111.319 20.5328C108.773 20.5328 106.974 18.9265 106.974 16.4046C106.974 13.8505 108.789 12.2442 110.953 12.2442C112.911 12.2442 114.63 13.5453 114.63 16.1476C114.63 16.3723 114.618 16.6584 114.593 16.8556C114.588 16.9013 114.548 16.9347 114.502 16.9347H109.027C108.969 16.9347 108.925 16.9872 108.937 17.0442C109.197 18.2884 110.211 18.9104 111.526 18.9104C112.423 18.9104 113.291 18.6132 114.052 18.1383C114.116 18.0985 114.2 18.1437 114.2 18.2188V19.7573ZM108.954 15.4753C108.941 15.5325 108.986 15.5854 109.044 15.5854H112.727C112.783 15.5854 112.827 15.537 112.819 15.4819C112.655 14.2892 111.788 13.8184 110.937 13.8184C110.044 13.8184 109.195 14.3756 108.954 15.4753Z" fill="#101010"/>
<path d="M116.196 20.3561C116.145 20.3561 116.102 20.314 116.102 20.262V12.515C116.102 12.463 116.145 12.4209 116.196 12.4209H117.918C117.97 12.4209 118.012 12.463 118.012 12.515V13.191C118.012 13.2014 118.018 13.211 118.027 13.2156C118.038 13.2207 118.05 13.2192 118.058 13.2118C118.694 12.6558 119.58 12.2442 120.622 12.2442C121.482 12.2442 122.166 12.5173 122.676 13.0634C123.169 13.6096 123.36 14.3164 123.36 15.3765V20.262C123.36 20.314 123.318 20.3561 123.266 20.3561H121.528C121.476 20.3561 121.434 20.314 121.434 20.262V15.6175C121.434 15.0553 121.355 14.6376 121.084 14.3646C120.813 14.0915 120.431 13.963 120.002 13.963C119.283 13.963 118.549 14.319 118.056 14.8031C118.038 14.8205 118.028 14.8443 118.028 14.8691V20.262C118.028 20.314 117.986 20.3561 117.934 20.3561H116.196Z" fill="#101010"/>
<path d="M131.488 19.8716C131.488 19.9033 131.472 19.933 131.446 19.9499C130.811 20.3485 129.925 20.5328 129.085 20.5328C126.523 20.5328 124.756 18.798 124.756 16.4046C124.756 13.9469 126.634 12.2442 129.133 12.2442C129.956 12.2442 130.764 12.4279 131.38 12.7953C131.408 12.812 131.425 12.8423 131.425 12.8748V14.4583C131.425 14.5341 131.339 14.5793 131.275 14.5388C130.698 14.1751 130.007 13.9308 129.276 13.9308C127.732 13.9308 126.698 14.9589 126.698 16.3885C126.698 17.8342 127.748 18.8301 129.292 18.8301C130.043 18.8301 130.794 18.5921 131.331 18.224C131.396 18.1793 131.488 18.2244 131.488 18.3033V19.8716Z" fill="#101010"/>
<path d="M135.872 23.8348C135.857 23.8685 135.824 23.89 135.787 23.89H133.99C133.921 23.89 133.876 23.8182 133.905 23.7558L135.908 19.5122C135.92 19.4871 135.92 19.4581 135.909 19.4329L132.757 12.5542C132.728 12.4919 132.774 12.4209 132.843 12.4209H134.704C134.741 12.4209 134.775 12.4428 134.79 12.4768L135.863 14.8946C136.227 15.7247 136.575 16.5547 136.892 17.3375C136.895 17.3465 136.904 17.3523 136.914 17.3523C136.923 17.3523 136.932 17.3466 136.936 17.3377C137.284 16.5075 137.632 15.693 137.996 14.8786L139.069 12.4766C139.084 12.4427 139.118 12.4209 139.155 12.4209H140.906C140.974 12.4209 141.02 12.4916 140.991 12.5539L135.872 23.8348Z" fill="#101010"/>
<path fill-rule="evenodd" clip-rule="evenodd" d="M95.946 20.5588H92.0473C90.4473 20.5588 89.2391 19.6855 89.2391 18.12C89.2391 16.3898 90.5616 15.5989 92.5698 15.5989C93.0596 15.5989 93.6311 15.6483 94.1536 15.7307V15.2363C94.1536 14.2311 93.4841 13.7862 92.2106 13.7862C91.3902 13.7862 90.6677 13.9965 90.1389 14.2563C90.0346 14.3076 89.9085 14.2332 89.9085 14.1161V12.7861C89.9085 12.732 89.9367 12.6817 89.9838 12.6558C90.5755 12.3298 91.4915 12.0725 92.6025 12.0725C94.7903 12.0725 96.0965 13.0447 96.0965 14.9892V16.061L96.9353 16.2036C97.008 16.216 97.0611 16.2794 97.0611 16.3538V17.3606C97.0611 17.4551 96.9768 17.5268 96.8845 17.5106L96.0965 17.3727V18.1695V20.4066C96.0965 20.4907 96.0293 20.5588 95.946 20.5588ZM94.0028 19.0264H92.5208C91.7698 19.0264 91.182 18.7133 91.182 17.9882C91.182 17.1808 91.9494 16.9171 92.8637 16.9171C93.2556 16.9171 93.778 16.9666 94.1536 17.0325V18.8741C94.1536 18.9582 94.0861 19.0264 94.0028 19.0264Z" fill="#101010"/>
<path d="M61.2595 20.5922C61.1752 20.5922 61.1069 20.5239 61.1069 20.4397V8.13084C61.1069 8.04659 61.1752 7.97829 61.2595 7.97829H62.9522C63.0364 7.97829 63.1047 8.04659 63.1047 8.13083V20.4396C63.1047 20.5239 63.0364 20.5922 62.9522 20.5922H61.2595Z" fill="#101010"/>
<path d="M47.1932 20.6032C47.1315 20.6032 47.0758 20.566 47.0522 20.5089L43.8101 12.2946C43.7687 12.1942 43.8425 12.0839 43.9511 12.0839H45.7491C45.8118 12.0839 45.868 12.1221 45.891 12.1804L47.0912 15.5841C47.4358 16.4702 47.7478 17.3238 48.0596 18.1771C48.063 18.1865 48.0719 18.1927 48.0819 18.1927C48.0918 18.1927 48.1006 18.1866 48.1041 18.1773C48.4324 17.3072 48.7609 16.4209 49.122 15.5345L50.3218 12.1796C50.345 12.1218 50.4011 12.0839 50.4634 12.0839H52.1469C52.2554 12.0839 52.3292 12.194 52.288 12.2944L49.0618 20.5086C49.0382 20.5659 48.9825 20.6032 48.9207 20.6032H47.1932Z" fill="#101010"/>
<path d="M39.3524 20.6032C36.8263 20.6032 34.9441 18.7375 34.9441 16.3435C34.9441 13.933 36.8263 12.0839 39.3524 12.0839C41.8785 12.0839 43.7607 13.933 43.7607 16.3435C43.7607 18.7375 41.8785 20.6032 39.3524 20.6032ZM39.3524 18.8366C40.7228 18.8366 41.7629 17.7469 41.7629 16.3435C41.7629 14.9402 40.7228 13.834 39.3524 13.834C37.9655 13.834 36.9419 14.9402 36.9419 16.3435C36.9419 17.7469 37.9655 18.8366 39.3524 18.8366Z" fill="#101010"/>
<path fill-rule="evenodd" clip-rule="evenodd" d="M26.2186 24.0723C26.1343 24.0723 26.066 24.004 26.066 23.9197V12.2548C26.066 12.1706 26.1343 12.1023 26.2186 12.1023H30.2927C32.406 12.1023 34.1561 13.7533 34.1561 16.2629C34.1561 18.8055 32.34 20.6216 29.9294 20.6216C29.2263 20.6216 28.6204 20.4597 28.1116 20.1999C28.1023 20.1952 28.0913 20.1951 28.0819 20.1998C28.0708 20.2053 28.0638 20.2167 28.0638 20.2291V23.9197C28.0638 24.004 27.9955 24.0723 27.9112 24.0723H26.2186ZM29.7148 18.9375C29.1224 18.9375 28.5594 18.7609 28.137 18.5188C28.0911 18.4924 28.0638 18.443 28.0638 18.39V13.9719C28.0638 13.8876 28.1321 13.8193 28.2164 13.8193C28.7335 13.8193 29.1665 13.8193 29.8139 13.8193C31.2668 13.8193 32.1418 14.942 32.1418 16.3619C32.1418 17.8314 31.2503 18.9375 29.7148 18.9375Z" fill="#101010"/>
<path d="M8.54483 20.5922C8.46058 20.5922 8.39229 20.5239 8.39229 20.4397V8.13084C8.39229 8.04659 8.46058 7.97829 8.54483 7.97829H10.2375C10.3217 7.97829 10.39 8.04659 10.39 8.13083V13.2107C10.39 13.2217 10.3962 13.2317 10.406 13.2366C10.4163 13.2417 10.4287 13.2403 10.4376 13.2328C11.097 12.6775 12.0159 12.2545 13.0812 12.2545C13.9728 12.2545 14.6827 12.5351 15.2111 13.0965C15.7229 13.6578 15.921 14.3843 15.921 15.474V20.4396C15.921 20.5239 15.8527 20.5922 15.7685 20.5922H14.0758C13.9916 20.5922 13.9233 20.5239 13.9233 20.4397V15.7216C13.9233 15.1438 13.8407 14.7145 13.56 14.4338C13.2793 14.1532 12.8831 14.0211 12.4373 14.0211C11.6999 14.0211 10.9468 14.3791 10.4352 14.8685C10.406 14.8964 10.39 14.9354 10.39 14.9758V20.4397C10.39 20.5239 10.3217 20.5922 10.2375 20.5922H8.54483Z" fill="#101010"/>
<path d="M3.58436 20.6216C2.57369 20.6216 1.32921 20.419 0.426452 19.938C0.377856 19.9121 0.34833 19.8611 0.34833 19.806V18.3259C0.34833 18.2051 0.482755 18.1313 0.587878 18.1908C1.57151 18.7477 2.76345 18.9871 3.61738 18.9871C4.52545 18.9871 5.10331 18.7229 5.10331 18.145C5.10331 17.7323 4.85566 17.5177 4.16222 17.3526C3.46879 17.1874 2.19749 17.0058 1.4215 16.6426C0.629006 16.2794 0.249268 15.652 0.249268 14.7109C0.249268 12.9938 1.65265 12.1023 3.61738 12.1023C4.59032 12.1023 5.73275 12.318 6.53858 12.7048C6.59027 12.7296 6.62226 12.7823 6.62226 12.8396V14.242C6.62226 14.3572 6.49925 14.4313 6.39543 14.3815C5.45912 13.932 4.41363 13.7203 3.6504 13.7203C2.80837 13.7203 2.24702 13.9679 2.24702 14.5293C2.24702 14.9586 2.56072 15.1567 3.27066 15.3218C3.98061 15.4704 5.16935 15.6355 5.92883 15.9822C6.70481 16.3454 7.10106 16.9563 7.10106 17.9634C7.10106 19.7796 5.51607 20.6216 3.58436 20.6216Z" fill="#101010"/>
<path fill-rule="evenodd" clip-rule="evenodd" d="M23.9122 20.6051H19.9699C18.3519 20.6051 17.1301 19.73 17.1301 18.1616C17.1301 16.428 18.4674 15.6355 20.4982 15.6355C20.9935 15.6355 21.5714 15.685 22.0997 15.7676V15.2722C22.0997 14.2651 21.4228 13.8193 20.135 13.8193C19.3053 13.8193 18.5748 14.03 18.0401 14.2903C17.9345 14.3417 17.807 14.2672 17.807 14.1499V12.8173C17.807 12.763 17.8355 12.7127 17.8832 12.6867C18.4815 12.36 19.4078 12.1023 20.5312 12.1023C22.7436 12.1023 24.0644 13.0764 24.0644 15.0246V16.0985L24.9127 16.2414C24.9861 16.2538 25.0399 16.3174 25.0399 16.3919V17.4007C25.0399 17.4953 24.9546 17.5671 24.8613 17.551L24.0644 17.4127V18.2111V20.4526C24.0644 20.5368 23.9965 20.6051 23.9122 20.6051ZM21.9473 19.0696H20.4487C19.6892 19.0696 19.0948 18.7559 19.0948 18.0295C19.0948 17.2205 19.8708 16.9563 20.7954 16.9563C21.1916 16.9563 21.72 17.0058 22.0997 17.0719V18.9171C22.0997 19.0013 22.0315 19.0696 21.9473 19.0696Z" fill="#101010"/>
<path fill-rule="evenodd" clip-rule="evenodd" d="M59.2513 20.6051H55.3089C53.6909 20.6051 52.4691 19.73 52.4691 18.1616C52.4691 16.428 53.8065 15.6355 55.8372 15.6355C56.3326 15.6355 56.9104 15.685 57.4388 15.7676V15.2722C57.4388 14.2651 56.7618 13.8193 55.474 13.8193C54.6444 13.8193 53.9138 14.03 53.3791 14.2903C53.2736 14.3417 53.1461 14.2672 53.1461 14.1499V12.8173C53.1461 12.763 53.1746 12.7127 53.2222 12.6867C53.8206 12.36 54.7469 12.1023 55.8703 12.1023C58.0827 12.1023 59.4035 13.0764 59.4035 15.0246V16.0985L60.2518 16.2414C60.3252 16.2538 60.379 16.3174 60.379 16.3919V17.4007C60.379 17.4953 60.2936 17.5671 60.2003 17.551L59.4035 17.4127V18.2111V20.4526C59.4035 20.5368 59.3355 20.6051 59.2513 20.6051ZM57.2863 19.0696H55.7877C55.0282 19.0696 54.4339 18.7559 54.4339 18.0295C54.4339 17.2205 55.2099 16.9563 56.1344 16.9563C56.5307 16.9563 57.059 17.0058 57.4388 17.0719V18.9171C57.4388 19.0013 57.3706 19.0696 57.2863 19.0696Z" fill="#101010"/>
<path d="M77.2442 0.126343C77.2399 0.106108 77.247 0.0906399 77.2599 0.0805119C77.2665 0.0753523 77.2732 0.0730101 77.2785 0.0724292C77.2829 0.0719535 77.2894 0.0722161 77.2991 0.0773828C78.4698 0.701713 79.4198 1.44355 80.1592 2.26279C81.2929 3.51886 82.2425 5.0289 82.4671 6.66785C82.6137 7.73715 82.5411 8.96769 82.3531 10.2007C81.7028 14.4656 78.3607 18.1769 74.1105 18.7603C73.8531 18.7956 73.3678 18.7882 72.8225 18.697C72.2783 18.6059 71.6959 18.4349 71.2364 18.1571C71.2332 18.1552 71.231 18.1531 71.231 18.1531C71.231 18.1531 71.2306 18.15 71.2312 18.1462C71.2335 18.1326 71.2451 18.1121 71.2709 18.1012C72.0002 17.7905 72.3939 17.3289 72.5745 16.7818C72.7505 16.2484 72.7165 15.6543 72.6416 15.0886C72.5921 14.7147 72.4879 14.3526 72.3878 14.0067L72.3844 13.995C72.2842 13.6485 72.1886 13.318 72.1406 12.9818C72.0604 12.4199 72.1336 11.7755 72.4514 11.0861C72.7998 10.3302 73.5166 9.82351 74.2627 9.30792C76.1441 8.00787 77.0943 6.62035 77.4657 5.08641C77.8345 3.56308 77.6256 1.92049 77.2442 0.126343Z" fill="#FF3800"/>
<path d="M82.9379 7.57511C82.9863 7.21105 83.0346 6.81812 83.0869 6.39035C83.1033 6.25639 83.2774 6.21468 83.3523 6.32691C86.3722 10.8483 85.9436 16.899 82.3918 21.0157C78.234 25.9592 70.2922 24.5994 68.016 18.5542L67.8747 18.179C67.8348 18.073 67.9582 17.9771 68.0554 18.0354C69.342 18.8062 70.4949 18.9809 71.5972 18.775C71.9771 18.9256 72.381 19.0262 72.7569 19.0891C73.3274 19.1846 73.8552 19.1966 74.1645 19.1542C78.6125 18.5437 82.073 14.6753 82.7461 10.2607C82.8842 9.35454 82.9631 8.43779 82.9379 7.57511Z" fill="#FF3800"/>
<path d="M76.386 6.64422C76.1745 5.8549 75.7882 5.0762 75.1773 4.3349C75.1077 4.25038 74.9714 4.27102 74.9244 4.36994C74.2569 5.77464 72.6088 6.78999 70.9734 7.79752C68.5157 9.31163 66.0868 10.8081 67.0576 13.5817C67.0856 13.6615 67.1782 13.7022 67.2549 13.6665L67.7423 13.4398L68.348 13.1967C69.8279 12.6029 71.42 13.2641 72.1251 14.5439C72.0885 14.4034 72.0477 14.2616 72.0059 14.1172L71.9991 14.0937C71.9013 13.7557 71.799 13.4021 71.747 13.038C71.6557 12.3976 71.7417 11.6761 72.0903 10.9196C72.492 10.0483 73.3086 9.48404 74.0365 8.98104C75.1293 8.22584 75.8836 7.45074 76.386 6.64422Z" fill="#FF3800"/>
</svg>
