<svg width="121" height="38" viewBox="0 0 121 38" fill="none" xmlns="http://www.w3.org/2000/svg">
<path d="M44.0523 0.44123C43.7156 0.149828 43.3168 0.00172893 42.8702 0.00171111C42.4237 0.00169328 42.0249 0.14976 41.6882 0.441136C41.3419 0.742065 41.1652 1.09316 41.1651 1.48964L41.165 5.79599L37.1794 5.79583L37.1795 1.48948C37.1796 1.07867 37.0029 0.722784 36.6542 0.428993C36.3175 0.144756 35.9211 0.00143374 35.4746 0.00141591C35.0137 0.00139752 34.6101 0.144687 34.2805 0.428898C33.9414 0.722662 33.7695 1.07853 33.7695 1.48696L33.769 13.0756C33.769 13.4841 33.9409 13.8423 34.28 14.1433C34.6095 14.4347 35.0131 14.5828 35.4764 14.5828C35.9253 14.5828 36.3217 14.4348 36.6585 14.1434C37.0047 13.8425 37.1815 13.4842 37.1815 13.0758L37.1816 8.77182L41.1672 8.77198L41.1671 13.0783C41.167 13.4868 41.3437 13.8474 41.69 14.146C42.0267 14.4374 42.4255 14.5855 42.872 14.5855C43.3186 14.5855 43.7174 14.4374 44.0541 14.1461C44.4004 13.8451 44.5771 13.4869 44.5771 13.0785L44.5776 1.48977C44.5728 1.09329 44.3985 0.742187 44.0523 0.44123Z" fill="#E30613"/>
<path d="M56.5602 1.50219C55.6242 0.50618 54.1842 0.0021627 52.281 0.00208673C50.3777 0.00201077 48.9377 0.505913 48.0016 1.50185C47.0679 2.49302 46.595 3.78753 46.5949 5.35195L46.5948 9.21405C46.5947 10.7665 47.0937 12.0635 48.0776 13.069C49.0614 14.0746 50.4774 14.5834 52.2804 14.5835C54.0857 14.5836 55.4994 14.0749 56.4833 13.0694C57.4672 12.0663 57.9664 10.7694 57.9665 9.21451L57.9666 5.3548C57.9643 3.79037 57.4915 2.49343 56.5602 1.50219ZM53.976 10.989C53.5939 11.4212 53.0399 11.6314 52.2805 11.6314C51.5211 11.6313 50.9671 11.4211 50.585 10.9888C50.2006 10.5541 50.0072 9.95938 50.0072 9.21658L50.0074 5.35448C50.0074 4.5448 50.1961 3.93576 50.571 3.54407C50.9412 3.15716 51.5167 2.95894 52.2832 2.95897C53.0498 2.959 53.6253 3.15487 53.9954 3.5442C54.3679 3.93592 54.559 4.54498 54.5589 5.35466L54.5588 9.21676C54.554 9.95956 54.3605 10.5567 53.976 10.989Z" fill="#E30613"/>
<path d="M69.0609 6.99374C70.3003 6.30831 70.926 5.3864 70.926 4.24233C70.9261 3.12455 70.4843 2.15482 69.6127 1.36422C68.7459 0.578388 67.5233 0.17947 65.9758 0.179409L62.4344 0.179267C61.9305 0.179247 61.4911 0.336866 61.1281 0.64496C60.7532 0.964995 60.5622 1.35908 60.5621 1.82244L60.5617 12.7686C60.5617 13.2296 60.7479 13.6237 61.1157 13.9438C61.4739 14.2543 61.918 14.4119 62.4338 14.412L65.8893 14.4121C67.5179 14.4122 68.8409 13.999 69.8224 13.187C70.8182 12.363 71.3221 11.3169 71.3222 10.0773C71.3246 8.72067 70.5629 7.68644 69.0609 6.99374ZM67.1123 5.21666C66.8258 5.45072 66.5081 5.56296 66.1428 5.56295L63.9721 5.56286L63.9722 3.11472L66.2885 3.11481C66.7184 3.11483 67.0336 3.21993 67.2222 3.42773C67.4204 3.64509 67.5159 3.92454 67.5159 4.28041C67.5159 4.69122 67.3846 4.99694 67.1123 5.21666ZM63.972 8.53885L66.2047 8.53894C66.7229 8.53896 67.1337 8.67034 67.4537 8.94025C67.7641 9.2006 67.9145 9.55887 67.9145 10.0366C67.9145 10.4856 67.7712 10.8247 67.4751 11.0731C67.1718 11.3263 66.7013 11.4552 66.0781 11.4552L63.9718 11.4551L63.972 8.53885Z" fill="#E30613"/>
<path d="M76.6199 0.430588C76.2832 0.146351 75.8868 0.00302894 75.4403 0.00301112C74.9794 0.00299272 74.5758 0.146283 74.2462 0.432882C73.9071 0.726646 73.7352 1.08252 73.7352 1.49094L73.7347 13.0987C73.7347 13.5072 73.9066 13.8654 74.2481 14.1568C74.5776 14.4411 74.9788 14.5844 75.4421 14.5844C75.8886 14.5844 76.2851 14.4411 76.6218 14.1569C76.9704 13.8632 77.1472 13.5073 77.1472 13.0965L77.1477 1.48869C77.1429 1.08026 76.9662 0.724379 76.6199 0.430588Z" fill="#E30613"/>
<path d="M43.9793 33.3323L39.9701 28.3833L43.975 23.4609L43.9869 23.4465C44.1684 23.1862 44.2592 22.9163 44.2592 22.6464C44.2592 22.2738 44.104 21.9179 43.7959 21.5931C43.4855 21.2659 43.0819 21.0987 42.5972 21.0986C42.0217 21.0986 41.5512 21.3183 41.1954 21.753L37.1785 26.7686L37.1787 22.5888C37.1787 22.178 37.002 21.8221 36.6534 21.5283C36.3167 21.2441 35.9203 21.1008 35.4737 21.1007C35.0128 21.1007 34.6093 21.244 34.2797 21.5306C33.9406 21.8244 33.7686 22.1803 33.7686 22.5887L33.7682 34.1774C33.7681 34.5858 33.9401 34.9441 34.2792 35.2426C34.6087 35.534 35.0123 35.6821 35.4755 35.6821C35.9245 35.6822 36.3209 35.5341 36.6576 35.2427C37.0039 34.9418 37.1806 34.5835 37.1806 34.1751L37.1808 30.024L41.1972 35.0303C41.5506 35.465 42.0211 35.6848 42.5966 35.6848C43.0813 35.6848 43.4849 35.5177 43.7954 35.1905C44.1035 34.8656 44.2587 34.5122 44.2587 34.1396C44.2587 33.8697 44.168 33.6022 43.9865 33.3394L43.9793 33.3323Z" fill="#E30613"/>
<path d="M56.0216 24.2735C55.8163 23.7194 55.4963 23.2082 55.0713 22.7497C54.6415 22.2863 54.0492 21.9208 53.309 21.6628C52.5806 21.4073 51.7186 21.2782 50.7466 21.2782L47.6661 21.2781C47.1622 21.2781 46.7205 21.4381 46.3575 21.7557C45.9825 22.0805 45.7939 22.4746 45.7938 22.9212L45.7934 34.1588C45.7934 34.5816 45.9701 34.947 46.3163 35.2456C46.653 35.537 47.0518 35.6851 47.4984 35.6851C47.9473 35.6851 48.3461 35.5347 48.6828 35.2337C49.0291 34.928 49.2035 34.565 49.2035 34.1566L49.2036 30.8247L50.7463 30.8248C52.4441 30.8248 53.8101 30.4093 54.8059 29.5901C55.8161 28.759 56.3272 27.5791 56.3272 26.0792C56.3296 25.4343 56.2246 24.8252 56.0216 24.2735ZM52.9195 26.0623C52.9195 26.6762 52.75 27.1204 52.4013 27.4165C52.0455 27.7175 51.4891 27.8727 50.7488 27.8727L49.2061 27.8726L49.2063 24.2326L50.7489 24.2327C51.4892 24.2327 52.0456 24.388 52.399 24.6913C52.75 24.9923 52.9196 25.4413 52.9195 26.0623Z" fill="#E30613"/>
<path d="M67.2499 32.9703C66.9132 32.6956 66.5168 32.5546 66.0726 32.5546L61.7455 32.5544L61.7456 29.8531L65.4662 29.8533C65.927 29.8533 66.3258 29.7124 66.6482 29.4353C66.9802 29.1487 67.1498 28.7881 67.1498 28.3677C67.1498 27.9569 66.9731 27.601 66.6221 27.3144C66.2854 27.0397 65.8961 26.8988 65.4663 26.8988L61.7458 26.8986L61.7459 24.2355L65.8652 24.2357C66.3237 24.2357 66.7225 24.1044 67.0496 23.8416C67.3935 23.567 67.5703 23.2135 67.5703 22.786C67.5703 22.3776 67.3936 22.0169 67.0473 21.7183C66.7106 21.4269 66.3119 21.2788 65.8653 21.2788L60.189 21.2786C59.6827 21.2786 59.2457 21.4433 58.8875 21.7705C58.5221 22.1025 58.3382 22.4847 58.3382 22.9026L58.3378 33.8871C58.3378 34.6275 58.7174 35.5112 60.5251 35.5113L66.0725 35.5115C66.5334 35.5115 66.937 35.3682 67.2665 35.084C67.6056 34.7903 67.78 34.4272 67.78 34.0068C67.7776 33.6056 67.6009 33.2593 67.2499 32.9703Z" fill="#E30613"/>
<path d="M82.2228 33.0544C81.9745 32.7798 81.6593 32.6173 81.2796 32.5696L81.28 22.9227C81.28 22.476 81.0914 22.0843 80.7165 21.7571C80.3511 21.4394 79.9117 21.2794 79.4079 21.2793L73.7101 21.2791C73.2205 21.2791 72.7907 21.4367 72.4325 21.7472C72.0695 22.0625 71.8688 22.4518 71.8378 22.9056L71.5223 28.5279C71.4172 30.4841 71.0661 31.8407 70.4762 32.5572C70.0273 32.581 69.6524 32.7506 69.3658 33.0587C69.0601 33.3883 68.9049 33.7848 68.9049 34.2362L68.9048 36.7369C68.9047 37.1596 69.0743 37.5179 69.4062 37.8045C69.6832 38.0434 70.0032 38.01 70.285 37.9813C70.3853 37.9718 70.488 37.9598 70.5906 37.9598C70.6933 37.9598 70.796 37.9694 70.8939 37.9813C71.1757 38.01 71.4933 38.0435 71.7727 37.8046C72.1047 37.518 72.2742 37.1574 72.2742 36.737L72.2743 35.5117L79.2545 35.512L79.2544 36.7373C79.2544 37.16 79.4239 37.5183 79.7558 37.8049C79.9397 37.9626 80.1403 38.0032 80.3361 38.0032C80.4364 38.0032 80.5367 37.9937 80.6322 37.9817C80.7325 37.9722 80.8352 37.9602 80.9379 37.9602C81.0454 37.9602 81.1504 37.9722 81.2555 37.9817C81.5421 38.0104 81.8668 38.0439 82.151 37.8074C82.4925 37.5208 82.6645 37.1602 82.6645 36.7374L82.6646 34.2391C82.6622 33.7782 82.5142 33.3793 82.2228 33.0544ZM77.8699 24.2147L77.8695 32.5575L74.1299 32.5573C74.586 31.5303 74.8559 30.2 74.93 28.5926L75.1093 24.217L77.8699 24.2171L77.8699 24.2147Z" fill="#E30613"/>
<path d="M95.2306 21.5428C94.8939 21.2514 94.476 21.1033 93.9841 21.1033C93.2892 21.1032 92.7447 21.3803 92.3626 21.9272L92.3554 21.9368C91.7966 22.8205 91.2688 23.6755 90.7816 24.4756C90.2849 25.2948 89.7213 26.2167 89.1075 27.2151C88.6657 27.934 88.2788 28.5669 87.9373 29.1282L87.9376 22.6101C87.9376 22.2017 87.7609 21.841 87.4147 21.5425C87.078 21.2511 86.672 21.103 86.2111 21.1029C85.7478 21.1029 85.349 21.2486 85.0266 21.5328C84.6947 21.8266 84.5275 22.1872 84.5275 22.61L84.527 34.1198C84.527 34.5545 84.7013 34.9295 85.0476 35.2353C85.3843 35.5338 85.8117 35.6867 86.3156 35.6867C87.0248 35.6868 87.5645 35.4217 87.918 34.8986L87.9204 34.8938L92.3409 27.7239L92.3406 34.1775C92.3406 34.5859 92.5173 34.9466 92.8635 35.2451C93.2002 35.5365 93.6062 35.6846 94.0671 35.6847C94.5304 35.6847 94.9292 35.539 95.2516 35.2548C95.5835 34.961 95.7507 34.6004 95.7507 34.1776L95.7511 22.6701C95.7536 22.2235 95.5769 21.8437 95.2306 21.5428Z" fill="#E30613"/>
<path d="M107.629 21.7056C107.286 21.4238 106.887 21.2804 106.44 21.2804L99.0661 21.2801C98.6147 21.2801 98.2135 21.4401 97.8768 21.753C97.5353 22.073 97.361 22.4122 97.361 22.7657C97.361 23.1741 97.5305 23.5276 97.8624 23.8142C98.1848 24.0913 98.5907 24.2322 99.066 24.2322L101.048 24.2323L101.048 34.1969C101.048 34.6053 101.22 34.9636 101.561 35.255C101.891 35.5392 102.292 35.6849 102.755 35.6849C103.202 35.6849 103.598 35.5417 103.935 35.2574C104.283 34.9637 104.46 34.6078 104.46 34.197L104.46 24.2325L106.443 24.2325C106.903 24.2326 107.307 24.0893 107.644 23.805C107.992 23.5113 108.169 23.1626 108.169 22.7637C108.167 22.3577 107.985 21.9994 107.629 21.7056Z" fill="#E30613"/>
<path d="M120.479 21.5438C120.143 21.2524 119.725 21.1043 119.233 21.1043C118.538 21.1042 117.993 21.3813 117.611 21.9282L117.604 21.9378C117.045 22.8215 116.515 23.6765 116.03 24.4766C115.534 25.2958 114.97 26.2177 114.356 27.2161C113.914 27.935 113.527 28.5679 113.186 29.1292L113.186 22.6111C113.186 22.2027 113.01 21.842 112.663 21.5435C112.327 21.2521 111.921 21.104 111.46 21.104C110.997 21.1039 110.598 21.2496 110.275 21.5338C109.943 21.8276 109.776 22.1882 109.776 22.611L109.776 34.1209C109.776 34.5556 109.95 34.9305 110.296 35.2363C110.633 35.5348 111.06 35.6877 111.564 35.6877C112.274 35.6878 112.813 35.4227 113.167 34.8996L113.169 34.8948L117.59 27.7249L117.589 34.1785C117.589 34.5869 117.766 34.9476 118.112 35.2461C118.449 35.5375 118.855 35.6856 119.316 35.6857C119.779 35.6857 120.178 35.54 120.5 35.2558C120.832 34.962 120.999 34.6014 120.999 34.1786L121 22.6711C121.002 22.2245 120.826 21.8447 120.479 21.5438Z" fill="#E30613"/>
<path d="M27.1348 23.8329C27.1063 20.3888 25.719 17.1452 23.2117 14.685C20.7903 12.3085 17.471 10.8108 13.8651 10.4643C8.92437 9.94105 6.31198 7.61699 6.10199 3.55665C6.09722 3.45394 6.09245 3.36557 6.0829 3.26764C6.07097 3.12434 6.04948 2.99297 6.02322 2.864C5.77252 1.69365 4.85795 0.783623 3.69022 0.544733C2.35294 0.272398 1.0013 0.943494 0.401863 2.17351C0.115278 2.76345 0.0388364 3.39877 0.146273 3.99827C0.170135 4.44968 0.232189 5.30475 0.463785 6.33417C0.788497 7.7768 1.34007 9.11673 2.1018 10.3134C3.12381 11.916 4.50403 13.2369 6.20664 14.2425C8.15282 15.389 10.5217 16.1176 13.2488 16.4043L13.2798 16.4067C17.8266 16.8392 21.1267 19.9706 21.1624 23.8733C20.7754 27.7139 17.5252 30.7232 13.5849 30.723C9.38682 30.7228 5.9697 27.3049 5.96987 23.106C5.96995 21.0782 6.76523 19.2344 8.06198 17.8682C7.9784 17.8348 7.89721 17.8013 7.81363 17.7655C6.02027 17.0083 4.4084 15.9311 3.01385 14.5696C2.21622 15.5536 1.56425 16.6403 1.06988 17.8154C0.360576 19.4921 -8.60961e-05 21.2714 -0.000159312 23.1057C-0.000232527 24.9401 0.360288 26.7195 1.06946 28.3962C1.75476 30.0156 2.73378 31.4678 3.98027 32.7146C5.22677 33.9614 6.67864 34.9407 8.29768 35.6263C9.97404 36.3357 11.7531 36.6964 13.5871 36.6965C15.4211 36.6966 17.2002 36.336 18.8766 35.6267C20.4957 34.9413 21.9476 33.9621 23.1942 32.7153C24.4408 31.4686 25.42 30.0165 26.1054 28.3972C26.7215 26.9426 27.0726 25.4117 27.1563 23.8353L27.1348 23.8353L27.1348 23.8329Z" fill="#E30613"/>
<path d="M24.809 11.0284C26.3231 8.85498 27.1256 6.2134 27.1257 3.39266C27.1258 1.74464 25.7885 0.407066 24.1408 0.407C22.4931 0.406934 21.1557 1.7444 21.1557 3.39242C21.1556 5.77608 20.2218 7.75128 18.531 9.06247C20.5274 9.76713 22.3661 10.8038 23.9445 12.1294C24.2526 11.7783 24.5415 11.4129 24.809 11.0284Z" fill="#E30613"/>
</svg>
