<svg width="172" height="55" viewBox="0 0 172 55" fill="none" xmlns="http://www.w3.org/2000/svg">
<path d="M62.5368 0.696775C62.0588 0.282698 61.4926 0.0722656 60.8587 0.0722656C60.2247 0.0722656 59.6586 0.282698 59.1806 0.696775C58.689 1.12443 58.4381 1.62336 58.4381 2.18677V8.30629H52.7801V2.18677C52.7801 1.60299 52.5292 1.09728 52.0343 0.679805C51.5563 0.27591 50.9935 0.0722656 50.3596 0.0722656C49.7053 0.0722656 49.1324 0.27591 48.6645 0.679805C48.1831 1.09728 47.939 1.60299 47.939 2.18338V18.6514C47.939 19.2318 48.1831 19.7409 48.6645 20.1686C49.1324 20.5827 49.7053 20.7931 50.363 20.7931C51.0003 20.7931 51.5631 20.5827 52.0411 20.1686C52.5326 19.7409 52.7835 19.2318 52.7835 18.6514V12.5353H58.4415V18.6548C58.4415 19.2352 58.6924 19.7477 59.184 20.172C59.662 20.5861 60.2281 20.7965 60.8621 20.7965C61.496 20.7965 62.0621 20.5861 62.5401 20.172C63.0317 19.7443 63.2826 19.2352 63.2826 18.6548V2.18677C63.2758 1.62336 63.0283 1.12443 62.5368 0.696775Z" fill="white"/>
<path d="M80.2934 2.20374C78.9645 0.788415 76.9203 0.0722656 74.2184 0.0722656C71.5165 0.0722656 69.4723 0.788415 68.1434 2.20374C66.8179 3.61229 66.1466 5.45187 66.1466 7.67499V13.1632C66.1466 15.3694 66.8552 17.2123 68.2519 18.6412C69.6486 20.0702 71.6589 20.7931 74.2184 20.7931C76.7813 20.7931 78.7882 20.0702 80.185 18.6412C81.5817 17.2157 82.2902 15.3728 82.2902 13.1632V7.67839C82.2868 5.45527 81.6156 3.61229 80.2934 2.20374ZM76.6254 15.685C76.083 16.2993 75.2965 16.598 74.2184 16.598C73.1404 16.598 72.3539 16.2993 71.8115 15.685C71.2656 15.0673 70.9911 14.2222 70.9911 13.1666V7.67839C70.9911 6.5278 71.2589 5.66231 71.7911 5.10568C72.3166 4.55584 73.1336 4.27413 74.2218 4.27413C75.31 4.27413 76.127 4.55244 76.6525 5.10568C77.1814 5.66231 77.4526 6.5278 77.4526 7.67839V13.1666C77.4458 14.2222 77.1712 15.0707 76.6254 15.685Z" fill="white"/>
<path d="M98.04 10.0067C99.7994 9.03264 100.688 7.72253 100.688 6.09677C100.688 4.50834 100.06 3.13035 98.8231 2.00691C97.5925 0.890257 95.8568 0.323447 93.66 0.323447H88.6325C87.9172 0.323447 87.2934 0.547455 86.7781 0.985291C86.2459 1.4401 85.9746 2.00012 85.9746 2.65857V18.2136C85.9746 18.8687 86.2391 19.4287 86.7611 19.8835C87.2697 20.3247 87.9002 20.5487 88.6325 20.5487H93.5379C95.85 20.5487 97.7281 19.9616 99.1214 18.8076C100.535 17.6366 101.25 16.15 101.25 14.3885C101.254 12.4607 100.172 10.991 98.04 10.0067ZM95.2737 7.48155C94.8669 7.81417 94.416 7.97369 93.8973 7.97369H90.8157V4.49476H94.1041C94.7143 4.49476 95.1618 4.6441 95.4296 4.93939C95.711 5.24825 95.8466 5.64536 95.8466 6.15107C95.8466 6.73485 95.6601 7.16929 95.2737 7.48155ZM90.8157 12.2027H93.9854C94.7211 12.2027 95.3042 12.3894 95.7584 12.7729C96.1992 13.1429 96.4127 13.652 96.4127 14.3308C96.4127 14.9689 96.2093 15.4508 95.7889 15.8038C95.3584 16.1636 94.6906 16.3469 93.8057 16.3469H90.8157V12.2027Z" fill="white"/>
<path d="M108.771 0.679805C108.293 0.27591 107.73 0.0722656 107.096 0.0722656C106.442 0.0722656 105.869 0.27591 105.401 0.683199C104.92 1.10067 104.675 1.60639 104.675 2.18677V18.682C104.675 19.2624 104.92 19.7715 105.404 20.1856C105.872 20.5894 106.442 20.7931 107.099 20.7931C107.733 20.7931 108.296 20.5894 108.774 20.1856C109.269 19.7681 109.52 19.2624 109.52 18.6786V2.18338C109.513 1.60299 109.262 1.09728 108.771 0.679805Z" fill="white"/>
<path d="M62.4351 47.4361L56.7431 40.4035L62.4283 33.4083L62.4452 33.388C62.7029 33.018 62.8317 32.6345 62.8317 32.251C62.8317 31.7215 62.6114 31.2158 62.174 30.7542C61.7333 30.2892 61.1604 30.0516 60.4722 30.0516C59.6552 30.0516 58.9873 30.3639 58.4822 30.9816L52.7801 38.1091V32.1695C52.7801 31.5857 52.5292 31.08 52.0343 30.6625C51.5563 30.2586 50.9935 30.055 50.3596 30.055C49.7053 30.055 49.1324 30.2586 48.6645 30.6659C48.1831 31.0834 47.939 31.5891 47.939 32.1695V48.6376C47.939 49.2179 48.1831 49.7271 48.6645 50.1513C49.1324 50.5654 49.7053 50.7758 50.363 50.7758C51.0003 50.7758 51.563 50.5654 52.0411 50.1513C52.5326 49.7237 52.7835 49.2145 52.7835 48.6342V42.7353L58.4856 49.8492C58.9874 50.467 59.6552 50.7792 60.4722 50.7792C61.1604 50.7792 61.7333 50.5416 62.174 50.0766C62.6114 49.615 62.8317 49.1127 62.8317 48.5832C62.8317 48.1997 62.7029 47.8196 62.4452 47.4462L62.4351 47.4361Z" fill="white"/>
<path d="M79.5302 34.5631C79.2386 33.7757 78.7843 33.0494 78.1809 32.3977C77.5707 31.7393 76.7299 31.22 75.679 30.8534C74.645 30.4902 73.4212 30.307 72.0415 30.307H67.6682C66.9529 30.307 66.3258 30.5344 65.8105 30.9858C65.2782 31.4474 65.0104 32.0074 65.0104 32.6421V48.6112C65.0104 49.2119 65.2613 49.7312 65.7528 50.1555C66.2308 50.5696 66.797 50.78 67.4309 50.78C68.0683 50.78 68.6344 50.5662 69.1124 50.1385C69.604 49.7041 69.8515 49.1882 69.8515 48.6078V43.8731H72.0415C74.4518 43.8731 76.3909 43.2825 77.8046 42.1183C79.2386 40.9372 79.9641 39.2605 79.9641 37.129C79.9675 36.2126 79.8183 35.3471 79.5302 34.5631ZM75.1264 37.1053C75.1264 37.9776 74.8857 38.6089 74.3908 39.0297C73.8857 39.4574 73.0958 39.678 72.0448 39.678H69.8548V34.5054H72.0448C73.0958 34.5054 73.8857 34.726 74.3874 35.1571C74.8857 35.5847 75.1264 36.2228 75.1264 37.1053Z" fill="white"/>
<path d="M95.4706 46.9209C94.9926 46.5306 94.4298 46.3304 93.7992 46.3304H87.6564V42.4917H92.9382C93.5925 42.4917 94.1586 42.2914 94.6163 41.8977C95.0875 41.4904 95.3282 40.9779 95.3282 40.3806C95.3282 39.7968 95.0773 39.2911 94.579 38.8838C94.101 38.4935 93.5484 38.2932 92.9382 38.2932H87.6564V34.5088H93.5043C94.1552 34.5088 94.7213 34.3221 95.1858 33.9488C95.674 33.5585 95.9248 33.0562 95.9248 32.4486C95.9248 31.8682 95.674 31.3557 95.1824 30.9315C94.7044 30.5174 94.1383 30.307 93.5043 30.307H85.4461C84.7274 30.307 84.107 30.5411 83.5985 31.0061C83.0798 31.4779 82.8188 32.021 82.8188 32.6149V48.2243C82.8188 49.2764 83.3578 50.5322 85.9241 50.5322H93.7992C94.4535 50.5322 95.0265 50.3286 95.4943 49.9247C95.9757 49.5072 96.2232 48.9913 96.2232 48.394C96.2198 47.8238 95.9689 47.3316 95.4706 46.9209Z" fill="white"/>
<path d="M116.727 47.0397C116.374 46.6494 115.927 46.4186 115.387 46.3507V32.6421C115.387 32.0074 115.12 31.4508 114.587 30.9858C114.069 30.5344 113.445 30.307 112.73 30.307H104.641C103.946 30.307 103.336 30.531 102.827 30.9722C102.312 31.4202 102.027 31.9734 101.983 32.6183L101.536 40.608C101.386 43.3877 100.888 45.3155 100.051 46.3338C99.4134 46.3677 98.8811 46.6087 98.4743 47.0465C98.0404 47.5149 97.8201 48.0783 97.8201 48.7198V52.2734C97.8201 52.8742 98.0608 53.3833 98.532 53.7906C98.9252 54.13 99.3795 54.0824 99.7795 54.0417C99.9219 54.0281 100.068 54.0112 100.213 54.0112C100.359 54.0112 100.505 54.0247 100.644 54.0417C101.044 54.0824 101.495 54.13 101.892 53.7906C102.363 53.3833 102.603 52.8708 102.603 52.2734V50.5322H112.513V52.2734C112.513 52.8742 112.753 53.3833 113.225 53.7906C113.486 54.0146 113.77 54.0723 114.048 54.0723C114.191 54.0723 114.333 54.0587 114.469 54.0417C114.611 54.0281 114.757 54.0112 114.903 54.0112C115.055 54.0112 115.204 54.0281 115.354 54.0417C115.76 54.0824 116.221 54.13 116.625 53.794C117.11 53.3867 117.354 52.8742 117.354 52.2734V48.7232C117.35 48.0681 117.14 47.5013 116.727 47.0397ZM110.546 34.4783V46.3338H105.238C105.885 44.8743 106.268 42.9838 106.373 40.6996L106.627 34.4817H110.546V34.4783Z" fill="white"/>
<path d="M135.192 30.6803C134.714 30.2662 134.121 30.0558 133.422 30.0558C132.436 30.0558 131.663 30.4495 131.121 31.2267L131.11 31.2403C130.317 32.4961 129.568 33.7112 128.876 34.8482C128.171 36.0124 127.371 37.3225 126.5 38.7412C125.873 39.7628 125.324 40.6623 124.839 41.4599V32.1974C124.839 31.617 124.588 31.1045 124.096 30.6803C123.618 30.2662 123.042 30.0558 122.388 30.0558C121.73 30.0558 121.164 30.2628 120.706 30.6667C120.235 31.0842 119.998 31.5967 119.998 32.1974V48.5535C119.998 49.1712 120.245 49.7041 120.737 50.1385C121.215 50.5628 121.822 50.78 122.537 50.78C123.544 50.78 124.31 50.4032 124.812 49.6599L124.815 49.6532L131.09 39.4641V48.6349C131.09 49.2153 131.341 49.7278 131.832 50.1521C132.31 50.5662 132.887 50.7766 133.541 50.7766C134.199 50.7766 134.765 50.5696 135.223 50.1657C135.694 49.7482 135.931 49.2357 135.931 48.6349V32.2823C135.934 31.6476 135.684 31.1079 135.192 30.6803Z" fill="white"/>
<path d="M152.794 30.9111C152.306 30.5106 151.74 30.307 151.106 30.307H140.637C139.996 30.307 139.427 30.5344 138.949 30.979C138.464 31.4338 138.216 31.9157 138.216 32.4181C138.216 32.9985 138.457 33.5008 138.928 33.9081C139.386 34.3018 139.962 34.502 140.637 34.502H143.451V48.6621C143.451 49.2425 143.695 49.7516 144.18 50.1657C144.647 50.5696 145.217 50.7766 145.875 50.7766C146.509 50.7766 147.071 50.573 147.549 50.1691C148.044 49.7516 148.295 49.2459 148.295 48.6621V34.502H151.109C151.763 34.502 152.336 34.2984 152.814 33.8945C153.309 33.477 153.56 32.9815 153.56 32.4147C153.557 31.8377 153.299 31.3286 152.794 30.9111Z" fill="white"/>
<path d="M171.036 30.6803C170.558 30.2662 169.965 30.0558 169.266 30.0558C168.28 30.0558 167.507 30.4495 166.964 31.2267L166.954 31.2403C166.161 32.4961 165.408 33.7112 164.72 34.8482C164.015 36.0124 163.215 37.3225 162.344 38.7412C161.716 39.7628 161.167 40.6623 160.682 41.4599V32.1974C160.682 31.617 160.432 31.1045 159.94 30.6803C159.462 30.2662 158.886 30.0558 158.231 30.0558C157.574 30.0558 157.008 30.2628 156.55 30.6667C156.079 31.0842 155.841 31.5967 155.841 32.1974V48.5535C155.841 49.1712 156.089 49.7041 156.58 50.1385C157.058 50.5628 157.665 50.78 158.381 50.78C159.387 50.78 160.154 50.4032 160.655 49.6599L160.659 49.6532L166.934 39.4641V48.6349C166.934 49.2153 167.185 49.7278 167.676 50.1521C168.154 50.5662 168.731 50.7766 169.385 50.7766C170.043 50.7766 170.609 50.5696 171.066 50.1657C171.538 49.7482 171.775 49.2357 171.775 48.6349V32.2823C171.778 31.6476 171.527 31.1079 171.036 30.6803Z" fill="white"/>
<path d="M38.5216 33.9385C38.4809 29.0443 36.5112 24.4351 32.9516 20.9392C29.5141 17.5621 24.8019 15.434 19.6828 14.9419C12.6688 14.1986 8.96 10.8962 8.66167 5.12623C8.65489 4.98029 8.64811 4.8547 8.63455 4.71555C8.6176 4.5119 8.58709 4.32523 8.5498 4.14195C8.19384 2.47885 6.89544 1.18571 5.23768 0.846302C3.33924 0.459378 1.42045 1.41311 0.569536 3.16106C0.162726 3.9994 0.0542426 4.90222 0.206797 5.75413C0.240697 6.39561 0.328839 7.61069 0.657678 9.07354C1.11873 11.1236 1.90184 13.0276 2.98328 14.7281C4.43423 17.0055 6.3937 18.8824 8.81084 20.3113C11.5738 21.9405 14.9367 22.9757 18.8082 23.383L18.8523 23.3864C25.307 24.0007 29.9921 28.4503 30.043 33.9962C29.4938 39.4539 24.8798 43.7304 19.2862 43.7304C13.3264 43.7304 8.47522 38.8735 8.47522 32.9067C8.47522 30.0252 9.60411 27.4049 11.4449 25.4635C11.3263 25.416 11.211 25.3685 11.0924 25.3176C8.54641 24.2417 6.2581 22.7109 4.27829 20.7763C3.146 22.1747 2.22051 23.719 1.51876 25.3889C0.511905 27.7715 0 30.3001 0 32.9067C0 35.5134 0.511905 38.042 1.51876 40.4246C2.49172 42.7258 3.88165 44.7894 5.65128 46.5611C7.4209 48.3328 9.48207 49.7244 11.7806 50.6985C14.1604 51.7065 16.686 52.219 19.2896 52.219C21.8932 52.219 24.4188 51.7065 26.7986 50.6985C29.0971 49.7244 31.1583 48.3328 32.9279 46.5611C34.6975 44.7894 36.0875 42.7258 37.0604 40.4246C37.9351 38.3576 38.4334 36.182 38.5521 33.9419H38.5216V33.9385Z" fill="white"/>
<path d="M35.2191 15.7433C37.3684 12.6547 38.5074 8.90081 38.5074 4.89241C38.5074 2.55049 36.609 0.649812 34.2698 0.649812C31.9307 0.649812 30.0322 2.55049 30.0322 4.89241C30.0322 8.27969 28.7067 11.0866 26.3065 12.9499C29.1406 13.9512 31.751 15.4242 33.9918 17.3079C34.4292 16.809 34.8394 16.2897 35.2191 15.7433Z" fill="white"/>
</svg>
