<svg width="48" height="30" viewBox="0 0 48 30" fill="none" xmlns="http://www.w3.org/2000/svg">
<path d="M30.0973 3.12988H17.2852V26.1536H30.0973V3.12988Z" fill="#FF5F00"/>
<path d="M18.0985 14.6424C18.0965 12.4251 18.5989 10.2363 19.5678 8.24188C20.5368 6.24742 21.9467 4.49953 23.691 3.13056C21.531 1.4327 18.9368 0.376829 16.205 0.0836258C13.4733 -0.209578 10.7141 0.271719 8.24294 1.4725C5.77177 2.67328 3.68829 4.5451 2.23064 6.87401C0.773 9.20293 0 11.895 0 14.6424C0 17.3899 0.773 20.0819 2.23064 22.4108C3.68829 24.7398 5.77177 26.6116 8.24294 27.8124C10.7141 29.0131 13.4733 29.4944 16.205 29.2012C18.9368 28.908 21.531 27.8522 23.691 26.1543C21.9468 24.7853 20.5368 23.0374 19.5679 21.043C18.5989 19.0485 18.0965 16.8598 18.0985 14.6424Z" fill="#EB001B"/>
<path d="M47.3815 14.6424C47.3816 17.3898 46.6087 20.0819 45.1511 22.4108C43.6935 24.7397 41.6101 26.6115 39.139 27.8123C36.6679 29.0131 33.9088 29.4944 31.177 29.2012C28.4453 28.908 25.8512 27.8522 23.6912 26.1543C25.4339 24.7839 26.8428 23.0358 27.8116 21.0416C28.7803 19.0475 29.2837 16.8594 29.2837 14.6424C29.2837 12.4254 28.7803 10.2374 27.8116 8.24323C26.8428 6.24909 25.4339 4.50092 23.6912 3.13055C25.8512 1.43269 28.4453 0.376823 31.177 0.0836232C33.9088 -0.209577 36.6679 0.271728 39.139 1.47252C41.6101 2.67332 43.6935 4.54515 45.1511 6.87406C46.6087 9.20298 47.3816 11.895 47.3815 14.6424Z" fill="#F79E1B"/>
<path d="M45.9845 23.7148V23.2435H46.1746V23.1474H45.6906V23.2435H45.8807V23.7148H45.9845ZM46.9243 23.7148V23.1465H46.7759L46.6053 23.5374L46.4346 23.1465H46.2861V23.7148H46.3909V23.2861L46.5509 23.6557H46.6596L46.8196 23.2852V23.7148H46.9243Z" fill="#F79E1B"/>
</svg>
