<svg width="20" height="21" viewBox="0 0 20 21" fill="none" xmlns="http://www.w3.org/2000/svg">
<path d="M15.0005 0.0668945L18.3335 3.3999V19.2339C18.3333 19.694 17.9596 20.0669 17.4995 20.0669H2.49951C2.03953 20.0667 1.66668 19.6939 1.6665 19.2339V0.899902C1.66668 0.439923 2.03953 0.0670704 2.49951 0.0668945H15.0005Z" fill="#E4E7EC"/>
<path d="M18.333 3.3999H15V0.0668945L18.333 3.3999Z" fill="#98A2B3"/>
<rect x="0.83313" y="8.40015" width="18.3333" height="8.33333" rx="0.833333" fill="#CC400C"/>
<path d="M3.88623 14.9911V10.1426H5.70441C6.07689 10.1426 6.38939 10.212 6.64191 10.3509C6.89602 10.4898 7.08778 10.6808 7.2172 10.9238C7.34819 11.1653 7.41369 11.4399 7.41369 11.7477C7.41369 12.0586 7.34819 12.3348 7.2172 12.5763C7.0862 12.8178 6.89286 13.008 6.63718 13.1468C6.3815 13.2842 6.06663 13.3528 5.69258 13.3528H4.48756V12.6307H5.5742C5.79201 12.6307 5.97035 12.5929 6.10924 12.5171C6.24813 12.4413 6.35072 12.3372 6.41701 12.2046C6.48487 12.072 6.51881 11.9197 6.51881 11.7477C6.51881 11.5757 6.48487 11.4241 6.41701 11.2931C6.35072 11.1621 6.24734 11.0603 6.10687 10.9877C5.96799 10.9136 5.78885 10.8765 5.56947 10.8765H4.76454V14.9911H3.88623Z" fill="white"/>
<path d="M9.81959 14.9911H8.1766V10.1426H9.85273C10.3341 10.1426 10.7476 10.2396 11.0933 10.4338C11.4405 10.6263 11.7072 10.9033 11.8935 11.2647C12.0797 11.6262 12.1728 12.0586 12.1728 12.5621C12.1728 13.0671 12.0789 13.5012 11.8911 13.8642C11.7048 14.2272 11.4357 14.5057 11.0838 14.6999C10.7334 14.894 10.312 14.9911 9.81959 14.9911ZM9.05491 14.2311H9.77697C10.1147 14.2311 10.3965 14.1696 10.6221 14.0465C10.8478 13.9218 11.0175 13.7363 11.1311 13.4901C11.2448 13.2423 11.3016 12.933 11.3016 12.5621C11.3016 12.1912 11.2448 11.8834 11.1311 11.6388C11.0175 11.3926 10.8494 11.2087 10.6269 11.0872C10.4059 10.9641 10.1313 10.9025 9.80302 10.9025H9.05491V14.2311Z" fill="white"/>
<path d="M13.0073 14.9911V10.1426H16.1134V10.8788H13.8856V12.1951H15.9003V12.9314H13.8856V14.9911H13.0073Z" fill="white"/>
</svg>
