<svg width="16" height="21" viewBox="0 0 16 21" fill="none" xmlns="http://www.w3.org/2000/svg">
<path fill-rule="evenodd" clip-rule="evenodd" d="M8 0.0615234C5.51472 0.0615234 3.5 2.07624 3.5 4.56152C3.5 7.0468 5.51472 9.06152 8 9.06152C10.4853 9.06152 12.5 7.0468 12.5 4.56152C12.5 2.07624 10.4853 0.0615234 8 0.0615234ZM5.5 4.56152C5.5 3.18081 6.61929 2.06152 8 2.06152C9.38071 2.06152 10.5 3.18081 10.5 4.56152C10.5 5.94224 9.38071 7.06152 8 7.06152C6.61929 7.06152 5.5 5.94224 5.5 4.56152Z" fill="white"/>
<path fill-rule="evenodd" clip-rule="evenodd" d="M8 10.5615C3.58172 10.5615 0 14.1432 0 18.5615V20.0615H16V18.5615C16 14.1432 12.4183 10.5615 8 10.5615ZM8 12.5615C11.1453 12.5615 13.7254 14.9818 13.9795 18.0615H2.02054C2.27461 14.9818 4.85467 12.5615 8 12.5615Z" fill="white"/>
</svg>
