<svg width="24" height="25" viewBox="0 0 24 25" fill="none" xmlns="http://www.w3.org/2000/svg">
<path fill-rule="evenodd" clip-rule="evenodd" d="M12 2.06055C9.51472 2.06055 7.5 4.07527 7.5 6.56055C7.5 9.04583 9.51472 11.0605 12 11.0605C14.4853 11.0605 16.5 9.04583 16.5 6.56055C16.5 4.07527 14.4853 2.06055 12 2.06055ZM9.5 6.56055C9.5 5.17984 10.6193 4.06055 12 4.06055C13.3807 4.06055 14.5 5.17984 14.5 6.56055C14.5 7.94126 13.3807 9.06055 12 9.06055C10.6193 9.06055 9.5 7.94126 9.5 6.56055Z" fill="#1D1D1B"/>
<path fill-rule="evenodd" clip-rule="evenodd" d="M12 12.5605C7.58172 12.5605 4 16.1423 4 20.5605V22.0605H20V20.5605C20 16.1423 16.4183 12.5605 12 12.5605ZM12 14.5605C15.1453 14.5605 17.7254 16.9808 17.9795 20.0605H6.02054C6.27461 16.9808 8.85467 14.5605 12 14.5605Z" fill="#1D1D1B"/>
</svg>
