<svg width="20" height="21" viewBox="0 0 20 21" fill="none" xmlns="http://www.w3.org/2000/svg">
<path fill-rule="evenodd" clip-rule="evenodd" d="M10 0.0668945C4.47715 0.0668945 0 4.54405 0 10.0669C0 15.5897 4.47715 20.0669 10 20.0669C15.5228 20.0669 20 15.5897 20 10.0669C20 4.54405 15.5228 0.0668945 10 0.0668945ZM2.62433 6.96324C2.22225 7.91759 2 8.96629 2 10.0669C2 10.7575 2.08751 11.4277 2.25203 12.0669H7.17071C7.47199 11.2145 8.14759 10.5389 9 10.2376V6.06689H11V10.2376C11.8524 10.5389 12.528 11.2145 12.8293 12.0669H17.748C17.9125 11.4277 18 10.7575 18 10.0669C18 8.96629 17.7777 7.9176 17.3757 6.96326L15.9127 7.80793L14.9127 6.07588L16.3743 5.23203C15.1034 3.55912 13.189 2.40175 11 2.12879V3.81689H9V2.12879C6.81099 2.40175 4.89663 3.55911 3.62576 5.23202L5.08734 6.07586L4.08734 7.80791L2.62433 6.96324ZM9 13.0669C9 12.5146 9.44771 12.0669 10 12.0669C10.5523 12.0669 11 12.5146 11 13.0669C11 13.6192 10.5523 14.0669 10 14.0669C9.44771 14.0669 9 13.6192 9 13.0669ZM12.8293 14.0669C12.4175 15.2321 11.3062 16.0669 10 16.0669C8.69378 16.0669 7.58254 15.2321 7.17071 14.0669H3.07026C4.4535 16.4581 7.03887 18.0669 10 18.0669C12.9611 18.0669 15.5465 16.4581 16.9297 14.0669H12.8293Z" fill="#393937"/>
</svg>
