<svg width="16" height="21" viewBox="0 0 16 21" fill="none" xmlns="http://www.w3.org/2000/svg">
<path fill-rule="evenodd" clip-rule="evenodd" d="M8 0.0668945C5.51472 0.0668945 3.5 2.08161 3.5 4.56689C3.5 7.05218 5.51472 9.06689 8 9.06689C10.4853 9.06689 12.5 7.05218 12.5 4.56689C12.5 2.08161 10.4853 0.0668945 8 0.0668945ZM5.5 4.56689C5.5 3.18618 6.61929 2.06689 8 2.06689C9.38071 2.06689 10.5 3.18618 10.5 4.56689C10.5 5.94761 9.38071 7.06689 8 7.06689C6.61929 7.06689 5.5 5.94761 5.5 4.56689Z" fill="#393937"/>
<path fill-rule="evenodd" clip-rule="evenodd" d="M8 10.5669C3.58172 10.5669 0 14.1486 0 18.5669V20.0669H16V18.5669C16 14.1486 12.4183 10.5669 8 10.5669ZM8 12.5669C11.1453 12.5669 13.7254 14.9871 13.9795 18.0669H2.02054C2.27461 14.9871 4.85467 12.5669 8 12.5669Z" fill="#393937"/>
</svg>
