<svg width="48" height="48" viewBox="0 0 48 48" fill="none" xmlns="http://www.w3.org/2000/svg">
<path d="M23.4602 16.28L20.2947 31.0793H16.4659L19.6317 16.28H23.4602ZM39.5679 25.8361L41.5831 20.2787L42.7428 25.8361H39.5679ZM43.8412 31.0793H47.3815L44.2885 16.28H41.0229C40.2869 16.28 39.6665 16.7068 39.3919 17.3648L33.647 31.0793H37.668L38.4662 28.8691H43.3775L43.8412 31.0793ZM33.8464 26.2478C33.8631 22.3421 28.4471 22.1257 28.4834 20.3805C28.4951 19.8503 29.001 19.2854 30.1068 19.141C30.655 19.0704 32.1678 19.0132 33.8827 19.8034L34.5534 16.6638C33.6324 16.3306 32.4471 16.0098 30.9722 16.0098C27.1873 16.0098 24.5247 18.0202 24.5034 20.9015C24.4791 23.0321 26.4054 24.2201 27.8536 24.9297C29.3468 25.655 29.8471 26.12 29.8398 26.7681C29.8295 27.761 28.6492 28.2007 27.5501 28.2174C25.6241 28.2473 24.5077 27.6968 23.618 27.282L22.923 30.5264C23.8191 30.9365 25.47 31.2933 27.1796 31.3116C31.2035 31.3116 33.8344 29.3248 33.8464 26.2478ZM17.9894 16.28L11.7859 31.0793H7.7393L4.68632 19.2685C4.50125 18.5422 4.33982 18.2752 3.77695 17.9683C2.85626 17.4684 1.33643 17.0007 0 16.7098L0.0905387 16.28H6.60525C7.43507 16.28 8.18167 16.8323 8.37173 17.7882L9.98444 26.3527L13.9671 16.28H17.9894Z" fill="#1434CB"/>
</svg>
